<mxfile host="app.diagrams.net" agent="Mozilla/5.0 (Windows NT 10.0; Win64; x64) AppleWebKit/537.36 (KHTML, like Gecko) Chrome/131.0.0.0 Safari/537.36" version="25.0.3">
  <diagram name="Page-1" id="e7e014a7-5840-1c2e-5031-d8a46d1fe8dd">
    <mxGraphModel dx="1434" dy="786" grid="1" gridSize="10" guides="1" tooltips="1" connect="1" arrows="1" fold="1" page="1" pageScale="1" pageWidth="1169" pageHeight="826" background="none" math="0" shadow="0">
      <root>
        <mxCell id="0" />
        <mxCell id="1" parent="0" />
        <mxCell id="2" value="Views" style="swimlane;whiteSpace=wrap;fillColor=#fff2cc;strokeColor=#d6b656;" parent="1" vertex="1">
          <mxGeometry x="120" y="120" width="240" height="400" as="geometry" />
        </mxCell>
        <mxCell id="7" value="InputView" style="fillColor=#fff2cc;strokeColor=#d6b656;" parent="2" vertex="1">
          <mxGeometry x="65" y="110" width="110" height="50" as="geometry" />
        </mxCell>
        <mxCell id="8" value="TranslationView" style="fillColor=#fff2cc;strokeColor=#d6b656;" parent="2" vertex="1">
          <mxGeometry x="65" y="260" width="110" height="50" as="geometry" />
        </mxCell>
        <mxCell id="3" value="Controllers" style="swimlane;whiteSpace=wrap;startSize=23;fillColor=#dae8fc;strokeColor=#6c8ebf;" parent="1" vertex="1">
          <mxGeometry x="360" y="120" width="240" height="400" as="geometry" />
        </mxCell>
        <mxCell id="16" value="Controller" style="fillColor=#dae8fc;strokeColor=#6c8ebf;" parent="3" vertex="1">
          <mxGeometry x="65" y="110" width="110" height="50" as="geometry" />
        </mxCell>
        <mxCell id="4" value="Models" style="swimlane;whiteSpace=wrap;startSize=23;fillColor=#d5e8d4;strokeColor=#82b366;" parent="1" vertex="1">
          <mxGeometry x="600" y="120" width="240" height="400" as="geometry" />
        </mxCell>
        <mxCell id="33" value="Model" style="fillColor=#d5e8d4;strokeColor=#82b366;" parent="4" vertex="1">
          <mxGeometry x="65" y="110" width="110" height="50" as="geometry" />
        </mxCell>
        <mxCell id="IvhlbJ_0D3NeA3Y2hIEv-43" value="" style="ellipse;whiteSpace=wrap;html=1;align=center;aspect=fixed;fillColor=none;strokeColor=none;resizable=0;perimeter=centerPerimeter;rotatable=0;allowArrows=0;points=[];outlineConnect=1;" vertex="1" parent="1">
          <mxGeometry x="455" y="450" width="10" height="10" as="geometry" />
        </mxCell>
        <mxCell id="IvhlbJ_0D3NeA3Y2hIEv-44" value="" style="rounded=0;orthogonalLoop=1;jettySize=auto;html=1;endArrow=halfCircle;endFill=0;endSize=6;strokeWidth=1;sketch=0;exitX=1;exitY=0.5;exitDx=0;exitDy=0;dashed=1;dashPattern=8 8;" edge="1" parent="1" source="7">
          <mxGeometry relative="1" as="geometry">
            <mxPoint x="480" y="375" as="sourcePoint" />
            <mxPoint x="390" y="255" as="targetPoint" />
          </mxGeometry>
        </mxCell>
        <mxCell id="IvhlbJ_0D3NeA3Y2hIEv-45" value="" style="rounded=0;orthogonalLoop=1;jettySize=auto;html=1;endArrow=oval;endFill=0;sketch=0;sourcePerimeterSpacing=0;targetPerimeterSpacing=0;endSize=10;exitX=0;exitY=0.5;exitDx=0;exitDy=0;" edge="1" parent="1" source="16">
          <mxGeometry relative="1" as="geometry">
            <mxPoint x="440" y="375" as="sourcePoint" />
            <mxPoint x="390" y="255" as="targetPoint" />
          </mxGeometry>
        </mxCell>
        <mxCell id="IvhlbJ_0D3NeA3Y2hIEv-52" value="IController&lt;div&gt;&lt;br&gt;&lt;/div&gt;" style="edgeLabel;html=1;align=center;verticalAlign=middle;resizable=0;points=[];" vertex="1" connectable="0" parent="IvhlbJ_0D3NeA3Y2hIEv-45">
          <mxGeometry x="0.2" y="2" relative="1" as="geometry">
            <mxPoint x="-14" y="23" as="offset" />
          </mxGeometry>
        </mxCell>
        <mxCell id="IvhlbJ_0D3NeA3Y2hIEv-46" value="" style="ellipse;whiteSpace=wrap;html=1;align=center;aspect=fixed;fillColor=none;strokeColor=none;resizable=0;perimeter=centerPerimeter;rotatable=0;allowArrows=0;points=[];outlineConnect=1;" vertex="1" parent="1">
          <mxGeometry x="455" y="370" width="10" height="10" as="geometry" />
        </mxCell>
        <mxCell id="IvhlbJ_0D3NeA3Y2hIEv-47" value="1" style="endArrow=open;html=1;endSize=12;startArrow=diamondThin;startSize=14;startFill=1;edgeStyle=orthogonalEdgeStyle;align=left;verticalAlign=bottom;rounded=0;exitX=1;exitY=0.5;exitDx=0;exitDy=0;entryX=0;entryY=0.5;entryDx=0;entryDy=0;" edge="1" parent="1" source="16" target="33">
          <mxGeometry x="-1" y="3" relative="1" as="geometry">
            <mxPoint x="380" y="380" as="sourcePoint" />
            <mxPoint x="540" y="380" as="targetPoint" />
          </mxGeometry>
        </mxCell>
        <mxCell id="37" value="" style="edgeStyle=none;strokeColor=#FF0000;endArrow=open;endFill=1;rounded=0;entryX=1;entryY=0.5;entryDx=0;entryDy=0;exitX=0.5;exitY=1;exitDx=0;exitDy=0;dashed=1;" parent="1" target="8" edge="1" source="33">
          <mxGeometry width="100" height="100" relative="1" as="geometry">
            <mxPoint x="720" y="290" as="sourcePoint" />
            <mxPoint x="380" y="390" as="targetPoint" />
            <Array as="points">
              <mxPoint x="720" y="405" />
            </Array>
          </mxGeometry>
        </mxCell>
        <mxCell id="IvhlbJ_0D3NeA3Y2hIEv-48" value="&lt;div&gt;&lt;br&gt;&lt;/div&gt;" style="edgeLabel;html=1;align=center;verticalAlign=middle;resizable=0;points=[];" vertex="1" connectable="0" parent="37">
          <mxGeometry x="0.19" y="3" relative="1" as="geometry">
            <mxPoint as="offset" />
          </mxGeometry>
        </mxCell>
        <mxCell id="IvhlbJ_0D3NeA3Y2hIEv-50" value="TextEventArgs" style="edgeLabel;html=1;align=center;verticalAlign=middle;resizable=0;points=[];" vertex="1" connectable="0" parent="37">
          <mxGeometry x="0.2013" relative="1" as="geometry">
            <mxPoint as="offset" />
          </mxGeometry>
        </mxCell>
        <mxCell id="IvhlbJ_0D3NeA3Y2hIEv-53" value="Translator" style="swimlane;whiteSpace=wrap;startSize=23;fillColor=#e1d5e7;strokeColor=#9673a6;fillStyle=auto;" vertex="1" parent="1">
          <mxGeometry x="840" y="120" width="240" height="400" as="geometry" />
        </mxCell>
        <mxCell id="IvhlbJ_0D3NeA3Y2hIEv-54" value="DeepLTranslator" style="fillColor=#e1d5e7;strokeColor=#9673a6;" vertex="1" parent="IvhlbJ_0D3NeA3Y2hIEv-53">
          <mxGeometry x="65" y="110" width="110" height="50" as="geometry" />
        </mxCell>
        <mxCell id="IvhlbJ_0D3NeA3Y2hIEv-55" value="" style="endArrow=classic;html=1;rounded=0;exitX=0.5;exitY=1;exitDx=0;exitDy=0;entryX=0.5;entryY=1;entryDx=0;entryDy=0;" edge="1" parent="1" source="8" target="IvhlbJ_0D3NeA3Y2hIEv-54">
          <mxGeometry width="50" height="50" relative="1" as="geometry">
            <mxPoint x="580" y="480" as="sourcePoint" />
            <mxPoint x="920" y="490" as="targetPoint" />
            <Array as="points">
              <mxPoint x="240" y="460" />
              <mxPoint x="960" y="460" />
            </Array>
          </mxGeometry>
        </mxCell>
        <mxCell id="IvhlbJ_0D3NeA3Y2hIEv-56" value="get translation" style="edgeLabel;html=1;align=center;verticalAlign=middle;resizable=0;points=[];" vertex="1" connectable="0" parent="IvhlbJ_0D3NeA3Y2hIEv-55">
          <mxGeometry x="-0.2667" y="-3" relative="1" as="geometry">
            <mxPoint as="offset" />
          </mxGeometry>
        </mxCell>
      </root>
    </mxGraphModel>
  </diagram>
</mxfile>
